# xmcd CD database file
#
# Track frame offsets:
#       150
#       14822
#       32304
#       47935
#       56588
#       72409
#       88350
#       97966
#       116457
#
# Disc length: 1701 seconds
#
# Revision: 1
# Processed by: cddbd v1.5.2PL0 Copyright (c) Steve Scherf et al.
# Submitted via: jack 3.1.1
#
DISCID=7806a309
DTITLE=Mike Snowden - Summer in the Fields
DYEAR=2009
DGENRE=
TTITLE0=Dark Highway
TTITLE1=Summer in the Fields
TTITLE2=The Mo Shuffle
TTITLE3=MES
TTITLE4=3 String Thing
TTITLE5=Porch Song
TTITLE6=Turn and Burn
TTITLE7=Heads or Tails
TTITLE8=1860
EXTD=
EXTT0=
EXTT1=
EXTT2=
EXTT3=
EXTT4=
EXTT5=
EXTT6=
EXTT7=
EXTT8=
PLAYORDER=
